<?xml version="1.0" standalone="no"?>
<!DOCTYPE svg PUBLIC "-//W3C//DTD SVG 20010904//EN"
 "http://www.w3.org/TR/2001/REC-SVG-20010904/DTD/svg10.dtd">
<svg version="1.0" xmlns="http://www.w3.org/2000/svg"
 width="920.000000pt" height="901.000000pt" viewBox="0 0 920.000000 901.000000"
 preserveAspectRatio="xMidYMid meet">

<g transform="translate(0.000000,901.000000) scale(0.100000,-0.100000)"
fill="#000000" stroke="none">
<path d="M2026 8991 c-12 -19 -125 -372 -156 -486 -106 -392 -131 -593 -146
-1140 -3 -121 -9 -308 -15 -415 -5 -107 -14 -303 -19 -435 -5 -132 -12 -274
-15 -315 -2 -41 -7 -160 -10 -265 -3 -104 -8 -224 -10 -265 -3 -41 -8 -129
-11 -195 -7 -119 -7 -120 -44 -165 -43 -53 -73 -103 -89 -152 -19 -56 -41
-208 -41 -280 0 -82 39 -241 77 -309 55 -103 164 -176 329 -224 48 -14 89 -27
90 -28 10 -10 133 -287 216 -487 96 -230 143 -372 197 -590 12 -47 26 -101 30
-120 5 -19 17 -75 26 -125 9 -49 20 -108 25 -130 9 -39 49 -281 69 -420 6 -38
18 -135 26 -215 38 -338 37 -333 102 -418 32 -42 95 -112 139 -157 80 -79 82
-82 89 -142 l7 -60 -169 -144 c-723 -614 -794 -671 -1028 -809 -71 -43 -236
-141 -365 -220 -129 -78 -283 -172 -342 -207 -60 -36 -108 -67 -108 -69 0 -2
1735 -4 3855 -4 l3855 0 -2 1221 -3 1222 -223 66 -223 66 -164 130 c-91 71
-173 133 -184 136 -24 9 -247 382 -538 899 -11 19 -35 62 -53 95 -18 33 -56
103 -85 155 -109 198 -272 516 -350 685 -86 185 -98 212 -115 255 -10 25 -29
70 -43 100 -32 71 -147 347 -147 354 0 3 -11 29 -23 58 -13 29 -30 69 -37 88
-7 19 -18 49 -25 65 -30 68 -253 665 -348 930 -41 113 -144 405 -166 470 -11
33 -48 139 -81 235 -107 307 -229 686 -305 945 -10 33 -23 78 -30 100 -29 93
-94 375 -120 520 -8 50 -20 116 -27 148 l-11 57 -237 0 -238 0 -11 -57 c-6
-32 -18 -92 -26 -133 -33 -159 -62 -319 -75 -420 -15 -125 -18 -132 -39 -125
-76 24 -396 82 -526 95 -186 19 -397 11 -585 -24 -291 -53 -769 -251 -1000
-414 -52 -36 -148 -119 -212 -184 -113 -113 -118 -117 -119 -88 -1 17 -2 33
-3 38 -1 4 -5 54 -9 112 -4 58 -12 152 -17 210 -10 101 -32 385 -46 574 -3 50
-8 99 -10 109 -2 11 -5 84 -6 163 l-3 144 -47 0 c-26 0 -49 -4 -52 -9z m2199
-3146 c119 -28 225 -85 313 -169 107 -100 161 -238 161 -406 0 -335 -226 -539
-598 -540 -278 0 -470 113 -534 315 -19 61 -37 177 -37 242 0 121 34 281 72
335 33 48 187 147 293 189 55 21 169 47 217 48 26 1 76 -6 113 -14z m-2050
-390 c118 -25 206 -75 306 -174 123 -123 159 -212 159 -384 -1 -216 -92 -368
-272 -456 -143 -71 -257 -87 -398 -57 -80 17 -183 51 -219 73 -116 71 -147
109 -187 229 -22 68 -26 96 -26 204 0 233 54 362 194 461 75 52 136 79 228
100 96 22 124 22 215 4z"/>
<path d="M4045 5386 c-41 -18 -82 -68 -96 -116 -15 -51 8 -116 56 -159 130
-114 318 32 251 193 -31 74 -138 116 -211 82z"/>
<path d="M2023 5036 c-117 -65 -127 -211 -20 -290 21 -16 43 -21 87 -21 44 0
66 5 87 21 85 63 99 166 33 248 -39 48 -136 70 -187 42z"/>
</g>
</svg>
